PathFileType	4	(X/Y/Z)	C:\Users\ebm\Documents\Erivelton\Erivelton\propulsion3.trc
DataRate	CameraRate	NumFrames	NumMarkers	Units	OrigDataRate	OrigDataStartFrame	OrigNumFrames
150.00	150.00	       11	28	mm	150.00	250	       997
Frame#	Time	IJ			PX			C7			T8			RAC			RAS			RPS			RAI			RPI			RLE			RME			RRS			RUS			R3M			R5M			LAC			LAS			LPS			LAI			LPI			LLE			LME			LRS			LUS			L3M			L5M			RW			LW			V_mid_elbow_r			V_mid_elbow_l			V_mid_wrist_r			V_mid_wrist_l			V_mid_trunk_low			V_mid_trunk_upp			
		X1	Y1	Z1	X2	Y2	Z2	X3	Y3	Z3	X4	Y4	Z4	X5	Y5	Z5	X6	Y6	Z6	X7	Y7	Z7	X8	Y8	Z8	X9	Y9	Z9	X10	Y10	Z10	X11	Y11	Z11	X12	Y12	Z12	X13	Y13	Z13	X14	Y14	Z14	X15	Y15	Z15	X16	Y16	Z16	X17	Y17	Z17	X18	Y18	Z18	X19	Y19	Z19	X20	Y20	Z20	X21	Y21	Z21	X22	Y22	Z22	X23	Y23	Z23	X24	Y24	Z24	X25	Y25	Z25	X26	Y26	Z26	X27	Y27	Z27	X28	Y28	Z28	

250	1.660	-894.28168	1009.66974	-67.45935	-902.78857	837.17725	-63.77760	-1005.51111	1125.74414	-67.16125	-1115.12695	946.85486	-68.12540	-957.54211	1058.43555	124.99133	-992.51416	893.81354	194.95097	-1026.85754	928.45892	217.15622	-1033.50317	831.21844	227.19160	-1063.42395	866.64282	248.61156	-1117.56775	802.65045	278.14764	-1152.61426	775.96240	203.44637	-929.26715	611.55688	222.49699	-958.98999	599.24133	271.51889	-877.87775	538.51477	264.79321	-914.49860	528.55579	279.20236	-1000.25079	1059.22693	-261.85840	-1034.05164	915.66711	-359.72498	-1078.68323	935.65216	-358.83231	-1057.48743	848.80768	-399.07996	-1109.34192	869.07825	-400.12949	-1107.58472	797.26202	-430.08624	-1152.82666	772.82629	-362.75595	-943.18738	604.13470	-340.32462	-962.83044	576.49731	-403.85825	-877.63953	547.14764	-402.42551	-914.81677	526.35809	-414.04285	-975.08405	301.87085	244.57104	-969.19110	298.40161	-383.58353	
251	1.667	-886.86450	1009.79358	-67.62119	-895.71539	837.18866	-63.91286	-997.90417	1125.89648	-66.93147	-1107.80432	947.30188	-67.86329	-949.41083	1058.17590	125.16419	-982.53241	892.87482	194.81635	-1017.10602	927.13721	217.46295	-1022.43036	829.80243	227.15311	-1052.67737	864.74774	249.04372	-1104.42163	799.52338	277.86163	-1141.29749	773.46112	203.84465	-915.77325	610.43677	222.62381	-945.64087	598.33270	271.36832	-865.44635	536.29169	265.14597	-901.98694	526.96826	279.23810	-992.56110	1059.02954	-261.91916	-1024.03674	914.39471	-360.13092	-1068.78430	934.01489	-359.77029	-1046.38757	846.99426	-399.17886	-1098.46313	866.95129	-401.15689	-1095.83264	795.27911	-430.56174	-1141.47363	770.48932	-363.70676	-929.42053	603.89685	-340.33115	-949.89154	575.70898	-403.75934	-865.18011	544.80157	-402.40405	-902.86499	524.89185	-413.85309	-968.00751	301.80399	244.74147	-962.51495	298.43646	-383.52884	
252	1.673	-879.39496	1009.81024	-67.72598	-888.40503	837.33594	-64.07750	-990.30255	1126.01331	-66.72971	-1100.42346	947.71533	-67.60502	-941.31744	1057.96301	125.31732	-972.50665	892.00183	194.63391	-1007.21149	925.67157	217.59673	-1011.58142	828.40967	227.13335	-1041.71326	862.86987	249.45871	-1092.65564	797.00549	278.36401	-1129.57959	770.82574	204.93793	-902.13202	609.20129	222.66699	-932.30347	597.17004	270.79462	-852.36743	533.88440	265.15961	-889.71295	525.37231	279.27237	-984.86365	1058.82178	-262.03497	-1013.85101	913.01477	-360.23633	-1058.82324	932.35461	-360.78046	-1035.22559	845.19232	-399.19150	-1087.40173	864.79877	-402.02173	-1084.04480	793.24823	-431.05249	-1130.00208	768.13623	-364.51978	-915.74500	603.46008	-340.34802	-936.93481	574.75751	-403.62949	-852.80005	542.55396	-402.28238	-890.85339	523.21637	-413.75400	-961.09174	301.73727	244.48247	-955.77234	298.47314	-383.54657	
253	1.680	-871.89319	1009.88336	-67.57038	-881.15442	837.29059	-63.91885	-982.62830	1126.08545	-66.55898	-1093.04395	948.13147	-67.38382	-933.11816	1057.65747	125.49744	-962.35693	890.96790	194.43723	-997.29126	924.25903	217.94786	-1000.16870	826.77655	227.13530	-1030.92493	861.08575	249.77882	-1080.77380	794.22369	279.09760	-1117.82910	768.01837	205.66739	-888.53534	607.99573	222.77187	-918.93109	595.88489	270.44171	-839.90924	531.24915	265.44235	-877.35022	523.73895	279.37915	-977.05682	1058.54285	-262.14017	-1003.69177	911.66083	-360.24219	-1048.79504	930.64301	-361.71243	-1023.95526	843.38562	-399.01138	-1076.38245	862.57794	-402.82419	-1072.13794	791.12653	-431.36313	-1118.40271	765.68982	-365.26346	-902.18445	602.80096	-340.37885	-924.00482	573.70959	-403.56265	-840.37720	540.09784	-402.28653	-878.93018	521.52692	-413.67517	-954.08258	301.88501	245.22797	-949.04004	298.53088	-383.45905	
254	1.687	-864.25269	1009.89886	-67.58772	-874.06934	837.11890	-63.90778	-974.96686	1126.12671	-66.40471	-1085.62512	948.49860	-67.19029	-925.00543	1057.37207	125.60435	-952.26410	890.04395	194.16338	-987.14099	922.72620	218.36328	-989.27893	825.24451	227.02975	-1019.64417	858.82800	250.11839	-1068.82153	791.59741	279.42621	-1106.02429	765.03363	205.91548	-874.38708	606.50403	222.81116	-905.37140	594.60626	271.76440	-827.80585	528.26965	266.21637	-864.69720	521.64050	279.75287	-969.19879	1058.21741	-262.32220	-993.66644	910.26459	-360.31308	-1038.83496	928.87909	-362.48160	-1012.71362	841.59387	-398.93030	-1065.35706	860.37091	-403.53180	-1060.17651	788.94220	-431.69104	-1106.68188	763.15796	-365.89557	-888.76257	601.89587	-340.42719	-911.05811	572.58948	-403.51831	-828.03931	537.59106	-402.28503	-867.02277	519.72443	-413.59174	-947.12445	301.56461	245.33804	-942.26471	298.57617	-383.38425	
255	1.693	-856.73773	1009.73132	-67.49329	-866.87213	836.96979	-63.85809	-967.23981	1126.13306	-66.26678	-1078.20715	948.80646	-67.00714	-916.89740	1057.03625	125.78738	-942.05725	888.96313	193.87035	-977.47650	921.27081	218.47711	-977.85693	823.62958	226.81560	-1008.56274	856.65741	250.23427	-1056.25549	788.67865	279.48877	-1093.76233	761.98004	206.66560	-860.49951	604.89014	222.97830	-891.35077	593.33514	271.27011	-814.74139	525.18658	265.63678	-852.12610	519.69794	279.88647	-961.25421	1057.79944	-262.49698	-983.30908	908.78394	-360.16708	-1028.68860	926.99792	-362.94461	-1001.41608	839.74689	-398.71832	-1054.23669	858.06281	-404.04117	-1048.15930	786.72229	-431.79880	-1094.85156	760.64648	-366.43045	-875.44110	600.72992	-340.47519	-898.20447	571.21124	-403.45633	-815.81195	534.95886	-402.27362	-855.07672	517.86902	-413.48901	-939.65582	301.83325	246.00732	-935.48083	298.58856	-383.33429	
256	1.700	-849.22272	1009.69507	-67.53452	-859.69983	836.84088	-63.95658	-959.48615	1126.14282	-66.14986	-1070.69849	949.11334	-66.81895	-908.83221	1056.66602	125.92947	-931.93457	888.09021	193.60004	-967.45056	919.59332	218.62962	-966.10925	821.95996	226.46747	-997.32098	854.61200	250.35391	-1044.16382	785.88147	279.63492	-1081.51721	758.81256	206.91214	-846.59399	603.11414	223.14804	-877.67932	591.79669	271.03622	-802.00171	522.26752	265.72375	-839.45642	517.73120	280.12186	-953.25275	1057.32922	-262.72818	-973.13147	907.34979	-360.10934	-1018.53076	925.26331	-363.59479	-990.04285	837.90533	-398.50070	-1043.09387	855.73346	-404.50333	-1036.11584	784.45905	-431.94217	-1082.96460	758.01434	-366.88181	-862.06305	599.38007	-340.46335	-885.32526	569.78851	-403.41382	-803.49847	532.29181	-402.13174	-843.16870	515.92938	-413.38495	-932.32031	301.32758	245.56256	-928.66956	298.62009	-383.39642	
257	1.707	-841.56824	1009.57184	-67.32731	-852.32275	836.61041	-63.90220	-951.76984	1126.08850	-66.04980	-1063.28088	949.38440	-66.62972	-900.70844	1056.20422	125.99916	-921.39526	886.91522	193.05046	-957.20612	917.92780	218.73096	-954.50366	820.22992	225.99760	-985.98456	852.41504	250.40604	-1031.40747	782.82367	279.75659	-1069.14319	755.47418	206.96684	-832.68115	601.18140	223.29404	-863.93250	590.17395	271.28967	-788.97217	519.29724	265.77106	-826.66852	515.67352	280.36310	-945.10858	1056.78137	-263.01135	-962.88110	905.86737	-359.97672	-1008.53912	923.26904	-364.06003	-978.74658	836.16174	-398.21091	-1030.90137	852.69928	-404.22363	-1023.99225	782.12360	-431.92267	-1071.01025	755.32465	-367.17697	-848.75549	598.02380	-340.46548	-872.44250	568.26453	-403.30832	-791.22473	529.45813	-402.23654	-831.15668	513.80707	-413.20566	-925.49548	301.23434	245.53564	-921.87054	298.67242	-383.44464	
258	1.713	-834.16113	1009.03131	-67.52402	-844.97809	836.56976	-64.01398	-943.98401	1125.96387	-65.96296	-1055.80945	949.57495	-66.45099	-892.59222	1055.70190	126.09281	-911.02142	885.78766	192.55807	-947.11017	916.26874	218.82214	-942.77008	818.49390	225.60229	-974.47235	850.09955	250.31134	-1018.86340	779.80005	279.75739	-1056.47205	752.24860	207.38577	-818.83502	599.01965	223.14862	-850.40045	588.04431	271.14261	-776.30029	516.15924	265.90115	-813.96930	513.39722	280.45300	-936.90363	1056.17090	-263.28568	-952.75104	904.42163	-359.88913	-998.53320	921.15302	-364.42407	-967.42316	834.32947	-397.94745	-1019.68549	850.19800	-404.44189	-1011.87952	779.71234	-431.79904	-1058.85571	752.63068	-367.33539	-835.27930	596.40668	-340.47891	-859.46899	566.65912	-403.18378	-778.93359	526.55054	-401.94904	-819.26410	511.62772	-413.08887	-918.14667	301.25430	244.63649	-914.97357	298.64236	-383.23492	
259	1.720	-826.36035	1009.14801	-67.46188	-837.66962	836.27051	-64.03045	-936.22577	1125.83740	-65.90460	-1048.31665	949.75977	-66.30328	-884.46936	1055.21802	126.18845	-900.71948	884.70135	192.08244	-936.70239	914.44196	219.09587	-930.88110	816.69037	225.00459	-962.70081	847.61792	250.64729	-1006.01343	776.63306	279.65854	-1043.68665	748.68323	207.60208	-804.81232	596.60669	222.98216	-836.53436	585.80200	270.89209	-763.70715	512.86664	266.12000	-801.33020	510.89337	280.57709	-928.66766	1055.54565	-263.60080	-942.53943	902.87189	-359.73453	-988.50879	919.03717	-364.69760	-955.90820	832.39020	-397.40344	-1008.39441	847.62970	-404.48410	-999.67993	777.24414	-431.59860	-1046.65784	749.82141	-367.34967	-821.86743	594.51648	-340.38721	-846.52966	565.05225	-403.17621	-766.74982	523.57202	-401.84686	-807.17035	509.25229	-412.68002	-910.86646	301.67014	245.16890	-908.05725	298.58127	-383.03168	
260	1.727	-818.98810	1008.48792	-67.48988	-830.34991	835.79053	-63.98298	-928.46210	1125.67749	-65.83891	-1040.80493	949.92151	-66.14283	-876.37311	1054.59851	126.23006	-890.17340	883.51538	191.51294	-926.11963	912.44769	218.88609	-918.94983	814.86707	224.40479	-950.96863	845.16736	250.14520	-992.87036	773.41943	279.47620	-1030.82922	745.39893	207.63510	-790.91962	594.06732	222.96417	-822.83539	583.64093	270.90341	-750.55048	509.42184	266.65851	-788.53516	508.28171	280.64246	-920.30890	1054.79614	-263.99838	-932.25397	901.32941	-359.40286	-978.46844	916.84778	-364.84909	-944.52490	830.50543	-397.02945	-997.09253	845.00726	-404.44870	-987.41443	774.70703	-431.31192	-1034.36768	746.97278	-367.25406	-808.56470	592.59570	-340.21872	-833.55554	563.19830	-403.01318	-754.50800	520.42096	-401.77701	-795.42340	507.06314	-412.75568	-903.19220	301.68408	244.08942	-901.17590	298.64664	-383.08871	
